<svg enable-background="new 0 0 233.4 65.2" height="65.2" viewBox="0 0 233.4 65.2" width="233.4" xmlns="http://www.w3.org/2000/svg"><g clip-rule="evenodd" fill-rule="evenodd"><path d="m28.4 52.9-4.9-2.8-9.7-5.6c-1.5-.9-2.4-2.4-2.4-4.2v-11.2-5.6c0-1.8.9-3.3 2.4-4.2s3.3-.9 4.8 0v5.6 11.2c0 1.8.9 3.3 2.4 4.2l9.7 5.6 4.9 2.8c0 1.8-.9 3.3-2.4 4.2s-3.3.9-4.8 0z" fill="#245bff"/><path d="m37.8 3.2c1.4.8 1.9 2.7 1.1 4.1s-2.7 1.9-4.1 1.1l-3.1-1.8c-.7-.4-1.4-.6-2.1-.6s-1.4.2-2.1.6c-6.5 3.7-13 7.4-19.4 11.2-1.4.8-2.1 2-2.1 3.6v22.4c0 .8.2 1.5.5 2.1.4.6.9 1.1 1.6 1.5l19.4 11.2c.7.4 1.4.6 2.1.6s1.4-.2 2.1-.6c6.5-3.7 12.9-7.5 19.4-11.2 1.4-.8 2.1-2.1 2.1-3.7v-3.6c0-1.7 1.3-3 3-3s3 1.3 3 3v3.6c0 3.7-1.9 7-5.1 8.8-6.5 3.7-12.9 7.5-19.4 11.2-1.6.9-3.4 1.4-5.1 1.4s-3.5-.5-5.1-1.4l-19.4-11.1c-1.6-.9-2.9-2.2-3.7-3.7-.9-1.5-1.4-3.3-1.4-5.1v-22.4c0-3.7 1.9-7 5.1-8.8 6.5-3.7 12.9-7.5 19.4-11.2 1.6-.9 3.3-1.4 5.1-1.4 1.7 0 3.5.5 5.1 1.4z" fill="#fff"/><path d="m44.4 13.9c-1.4-.8-1.9-2.7-1.1-4.1s2.7-1.9 4.1-1.1l6.6 3.8c1.6.9 2.9 2.2 3.7 3.7.9 1.5 1.3 3.3 1.3 5.1v7.7c0 1.6-1.3 3-3 3-1.6 0-3-1.3-3-3v-7.7c0-.8-.2-1.5-.5-2.1-.4-.6-.9-1.1-1.6-1.5z" fill="#21b1ff"/><path d="m40.5 45.9-4.9-2.8-9.7-5.6c-1.5-.9-2.4-2.4-2.4-4.2v-11.2-5.6c0-1.8.9-3.3 2.4-4.2s3.3-.9 4.8 0l4.9 2.8 9.7 5.6c1.5.9 2.4 2.4 2.4 4.2v11.2 5.6c0 1.8-.9 3.3-2.4 4.2s-3.3.9-4.8-0z" fill="#21b1ff"/><path d="m83 16.3c3.2 0 6 .6 8.4 1.9s4.3 3 5.6 5.3 2 5 2 8.1-.7 5.7-2 8-3.2 4.1-5.6 5.3c-2.4 1.3-5.2 1.9-8.4 1.9h-10.6v-30.5zm-.2 25.3c3.2 0 5.7-.9 7.4-2.6s2.6-4.2 2.6-7.4-.9-5.7-2.6-7.4c-1.7-1.8-4.2-2.7-7.4-2.7h-4.3v20.1zm19.3-7c0-2.4.5-4.6 1.5-6.5s2.3-3.3 4-4.4c1.7-1 3.5-1.5 5.6-1.5 1.8 0 3.4.4 4.7 1.1 1.4.7 2.4 1.6 3.3 2.8v-3.4h6.2v24.2h-6.2v-3.5c-.8 1.1-1.9 2.1-3.3 2.8s-3 1.1-4.8 1.1c-2 0-3.9-.5-5.6-1.6-1.7-1-3-2.5-4-4.4-.9-2-1.4-4.2-1.4-6.7zm19 .1c0-1.5-.3-2.8-.9-3.8-.6-1.1-1.4-1.9-2.4-2.4-1-.6-2.1-.9-3.2-.9s-2.2.3-3.1.8c-1 .6-1.7 1.4-2.3 2.4-.6 1.1-.9 2.3-.9 3.8s.3 2.7.9 3.8 1.4 1.9 2.4 2.5 2 .9 3.1.9 2.2-.3 3.2-.9 1.8-1.4 2.4-2.4c.5-1.1.8-2.3.8-3.8zm19.3-7.1v11.7c0 .8.2 1.4.6 1.8s1.1.5 2 .5h2.8v5.2h-3.8c-5.2 0-7.7-2.5-7.7-7.5v-11.7h-2.9v-5h2.9v-6h6.2v6h5.4v5zm8.2 7c0-2.4.5-4.6 1.5-6.5s2.3-3.3 4-4.4c1.7-1 3.5-1.5 5.6-1.5 1.8 0 3.4.4 4.7 1.1 1.4.7 2.4 1.6 3.3 2.8v-3.4h6.2v24.2h-6.2v-3.5c-.8 1.1-1.9 2.1-3.3 2.8s-3 1.1-4.8 1.1c-2 0-3.9-.5-5.6-1.6-1.7-1-3-2.5-4-4.4-.9-2-1.4-4.2-1.4-6.7zm19.1.1c0-1.5-.3-2.8-.9-3.8-.6-1.1-1.4-1.9-2.4-2.4-1-.6-2.1-.9-3.2-.9s-2.2.3-3.1.8c-1 .6-1.7 1.4-2.3 2.4-.6 1.1-.9 2.3-.9 3.8s.3 2.7.9 3.8 1.4 1.9 2.4 2.5 2 .9 3.1.9 2.2-.3 3.2-.9 1.8-1.4 2.4-2.4c.5-1.1.8-2.3.8-3.8zm29.3 12.1-11.1-13.6v13.6h-6.1v-30.5h6.1v13.7l11.1-13.7h7.4l-12.6 15.1 12.9 15.4zm14.9-27.1c-1.1 0-2-.3-2.7-1s-1.1-1.5-1.1-2.6c0-1 .4-1.9 1.1-2.6s1.6-1 2.7-1 2 .3 2.7 1 1.1 1.5 1.1 2.6c0 1-.4 1.9-1.1 2.6-.8.7-1.7 1-2.7 1zm3 2.9v24.2h-6.1v-24.2zm13.1 5v11.7c0 .8.2 1.4.6 1.8s1.1.5 2 .5h2.8v5.2h-3.8c-5.2 0-7.7-2.5-7.7-7.5v-11.7h-2.9v-5h2.9v-6h6.2v6h5.4v5z" fill="#fff"/></g></svg>